<svg width="42" height="42" viewBox="0 0 42 42" fill="none" xmlns="http://www.w3.org/2000/svg">
<path d="M26 11H16C13.2386 11 11 13.2386 11 16V26C11 28.7614 13.2386 31 16 31H26C28.7614 31 31 28.7614 31 26V16C31 13.2386 28.7614 11 26 11Z" stroke="#242C41" stroke-width="2" stroke-linecap="round" stroke-linejoin="round"/>
<path d="M25 20.3701C25.1234 21.2023 24.9812 22.0523 24.5937 22.7991C24.2062 23.5459 23.5931 24.1515 22.8416 24.5297C22.0901 24.908 21.2384 25.0397 20.4077 24.906C19.5771 24.7723 18.8097 24.3801 18.2148 23.7852C17.6199 23.1903 17.2277 22.4229 17.094 21.5923C16.9604 20.7616 17.092 19.91 17.4703 19.1584C17.8485 18.4069 18.4541 17.7938 19.2009 17.4063C19.9477 17.0188 20.7977 16.8766 21.63 17.0001C22.4789 17.1259 23.2648 17.5215 23.8716 18.1284C24.4785 18.7352 24.8741 19.5211 25 20.3701Z" stroke="#242C41" stroke-width="2" stroke-linecap="round" stroke-linejoin="round"/>
<path d="M26.5 15.5H26.51" stroke="#242C41" stroke-width="2" stroke-linecap="round" stroke-linejoin="round"/>
<circle cx="21" cy="21" r="20" stroke="#242C41" stroke-width="2"/>
</svg>
