<svg width="81" height="24" viewBox="0 0 81 24" fill="none" xmlns="http://www.w3.org/2000/svg">
<path d="M6.936 23.336C5.61067 23.336 4.388 23.0933 3.268 22.608C2.16667 22.104 1.26133 21.3947 0.552 20.48L3.072 17.456C4.136 18.8933 5.34933 19.612 6.712 19.612C8.56 19.612 9.484 18.5293 9.484 16.364V7.04H2.596V3.4H13.992V16.112C13.992 18.52 13.3947 20.3307 12.2 21.544C11.0053 22.7387 9.25067 23.336 6.936 23.336ZM32.1644 23.336C30.1298 23.336 28.2911 22.8973 26.6484 22.02C25.0244 21.1427 23.7458 19.9387 22.8124 18.408C21.8978 16.8587 21.4404 15.1227 21.4404 13.2C21.4404 11.2773 21.8978 9.55067 22.8124 8.02C23.7458 6.47067 25.0244 5.25733 26.6484 4.38C28.2911 3.50267 30.1298 3.064 32.1644 3.064C34.1991 3.064 36.0284 3.50267 37.6524 4.38C39.2764 5.25733 40.5551 6.47067 41.4884 8.02C42.4218 9.55067 42.8884 11.2773 42.8884 13.2C42.8884 15.1227 42.4218 16.8587 41.4884 18.408C40.5551 19.9387 39.2764 21.1427 37.6524 22.02C36.0284 22.8973 34.1991 23.336 32.1644 23.336ZM32.1644 19.472C33.3218 19.472 34.3671 19.2107 35.3004 18.688C36.2338 18.1467 36.9618 17.4 37.4844 16.448C38.0258 15.496 38.2964 14.4133 38.2964 13.2C38.2964 11.9867 38.0258 10.904 37.4844 9.952C36.9618 9 36.2338 8.26267 35.3004 7.74C34.3671 7.19867 33.3218 6.928 32.1644 6.928C31.0071 6.928 29.9618 7.19867 29.0284 7.74C28.0951 8.26267 27.3578 9 26.8164 9.952C26.2938 10.904 26.0324 11.9867 26.0324 13.2C26.0324 14.4133 26.2938 15.496 26.8164 16.448C27.3578 17.4 28.0951 18.1467 29.0284 18.688C29.9618 19.2107 31.0071 19.472 32.1644 19.472ZM57.6374 15.3L55.0054 18.044V23H50.4974V3.4H55.0054V12.556L63.6854 3.4H68.7254L60.6054 12.136L69.2014 23H63.9094L57.6374 15.3ZM75.116 7.936H79.484V23H75.116V7.936ZM77.3 5.836C76.4973 5.836 75.844 5.60267 75.34 5.136C74.836 4.66933 74.584 4.09067 74.584 3.4C74.584 2.70933 74.836 2.13067 75.34 1.664C75.844 1.19733 76.4973 0.963998 77.3 0.963998C78.1027 0.963998 78.756 1.188 79.26 1.636C79.764 2.084 80.016 2.644 80.016 3.316C80.016 4.044 79.764 4.65067 79.26 5.136C78.756 5.60267 78.1027 5.836 77.3 5.836Z" fill="#111111"/>
</svg>
