<svg width="42" height="42" viewBox="0 0 42 42" fill="none" xmlns="http://www.w3.org/2000/svg">
<path d="M32 13.0101C31.0424 13.6855 29.9821 14.2022 28.86 14.5401C28.2577 13.8476 27.4573 13.3567 26.567 13.134C25.6767 12.9112 24.7395 12.9673 23.8821 13.2945C23.0247 13.6218 22.2884 14.2045 21.773 14.9638C21.2575 15.7231 20.9877 16.6224 21 17.5401V18.5401C19.2426 18.5856 17.5013 18.1959 15.931 17.4055C14.3607 16.6151 13.0103 15.4487 12 14.0101C12 14.0101 8 23.0101 17 27.0101C14.9405 28.408 12.4872 29.109 10 29.0101C19 34.0101 30 29.0101 30 17.5101C29.9991 17.2315 29.9723 16.9537 29.92 16.6801C30.9406 15.6735 31.6608 14.4028 32 13.0101V13.0101Z" stroke="#242C41" stroke-width="2" stroke-linecap="round" stroke-linejoin="round"/>
<circle cx="21" cy="21" r="20" stroke="#242C41" stroke-width="2"/>
</svg>
