<svg width="700" height="388" viewBox="0 0 700 388" fill="none" xmlns="http://www.w3.org/2000/svg">
<path d="M360.199 385.225C349.133 386.855 337.933 387.396 326.761 386.841C299.822 385.48 273.329 377.645 250.688 362.913C240.649 356.381 231.073 348.355 225.877 337.575C218.825 322.934 221.291 304.4 231.362 291.649C235.036 287.049 239.554 283.194 244.675 280.291C245.434 279.862 246.209 279.45 246.993 279.054C255.525 274.763 265.109 273.008 274.608 273.997C290.757 275.763 305.662 285.627 314.273 299.41C321.944 311.7 324.617 326.2 326.192 340.734C326.489 343.472 326.745 346.219 326.992 348.949C325.619 356.859 323.461 364.612 320.55 372.093C320.402 372.458 320.281 372.833 320.187 373.215C321.837 376.795 323.407 380.408 324.897 384.053C326.297 384.813 327.865 385.21 329.458 385.208H360.133L360.199 385.225Z" fill="#F2F2F2"/>
<path d="M324.262 385.926C324.058 386.017 323.839 386.066 323.616 386.071C323.394 386.076 323.172 386.037 322.965 385.955C322.758 385.874 322.569 385.752 322.409 385.597C322.249 385.442 322.122 385.256 322.035 385.051C321.903 384.738 321.779 384.425 321.647 384.111C320.459 381.224 319.214 378.365 317.911 375.533C301.226 338.989 276.34 306.784 245.186 281.421C245.007 281.296 244.866 281.125 244.776 280.926C244.686 280.727 244.651 280.508 244.675 280.291C244.72 280.042 244.821 279.807 244.97 279.603C245.119 279.399 245.312 279.231 245.535 279.112C245.758 278.993 246.005 278.926 246.257 278.916C246.509 278.906 246.761 278.953 246.993 279.054C247.117 279.11 247.233 279.182 247.339 279.268C260.668 290.124 272.896 302.267 283.845 315.519C294.797 328.759 304.441 343.029 312.64 358.129C314.875 362.253 316.998 366.435 319.007 370.675C319.404 371.516 319.8 372.366 320.187 373.215C321.837 376.795 323.407 380.408 324.897 384.053C324.922 384.111 324.946 384.177 324.971 384.235C325.047 384.391 325.089 384.561 325.094 384.735C325.099 384.908 325.066 385.081 324.999 385.241C324.932 385.401 324.831 385.545 324.704 385.663C324.577 385.781 324.426 385.871 324.262 385.926Z" fill="white"/>
<path d="M214.866 277.14C232.632 277.14 247.034 262.738 247.034 244.972C247.034 227.206 232.632 212.804 214.866 212.804C197.1 212.804 182.698 227.206 182.698 244.972C182.698 262.738 197.1 277.14 214.866 277.14Z" fill="#242C41"/>
<path d="M211.677 257.243C210.953 257.245 210.249 257.011 209.67 256.577L209.634 256.55L202.074 250.762C201.724 250.493 201.43 250.159 201.209 249.777C200.988 249.395 200.844 248.974 200.786 248.536C200.728 248.099 200.757 247.654 200.871 247.228C200.985 246.802 201.181 246.402 201.45 246.052C201.718 245.702 202.053 245.408 202.435 245.187C202.816 244.966 203.238 244.823 203.676 244.765C204.113 244.707 204.557 244.736 204.984 244.85C205.41 244.964 205.809 245.161 206.16 245.43L211.056 249.184L222.628 234.093C222.896 233.743 223.231 233.45 223.613 233.229C223.994 233.008 224.416 232.865 224.853 232.807C225.291 232.75 225.735 232.779 226.161 232.893C226.587 233.007 226.986 233.203 227.336 233.472L227.265 233.569L227.338 233.473C228.044 234.016 228.506 234.816 228.623 235.699C228.739 236.582 228.501 237.475 227.96 238.182L214.349 255.933C214.034 256.342 213.63 256.673 213.166 256.9C212.703 257.127 212.193 257.245 211.677 257.243Z" fill="white"/>
<path d="M699.021 387.206H0.979262C0.719285 387.206 0.470219 387.102 0.286654 386.918C0.103088 386.734 0 386.484 0 386.224C0 385.964 0.103088 385.715 0.286654 385.531C0.470219 385.347 0.719285 385.243 0.979262 385.242H699.021C699.281 385.243 699.53 385.347 699.713 385.531C699.897 385.715 700 385.964 700 386.224C700 386.484 699.897 386.734 699.713 386.918C699.53 387.102 699.281 387.206 699.021 387.206Z" fill="#3F3D56"/>
<path d="M136.543 112.13C149.726 112.13 160.413 101.443 160.413 88.2599C160.413 75.0767 149.726 64.3896 136.543 64.3896C123.36 64.3896 112.673 75.0767 112.673 88.2599C112.673 101.443 123.36 112.13 136.543 112.13Z" fill="#2F2E41"/>
<path d="M117.911 75.3896C121.768 71.5323 122.55 66.06 119.657 63.167C116.764 60.274 111.292 61.0558 107.434 64.9131C103.577 68.7705 102.795 74.2427 105.688 77.1357C108.581 80.0287 114.053 79.247 117.911 75.3896Z" fill="#2F2E41"/>
<path d="M161.422 67.8093C163.029 64.0468 160.265 59.2596 155.249 57.1167C150.232 54.9738 144.863 56.2867 143.255 60.0491C141.648 63.8116 144.412 68.5988 149.429 70.7417C154.445 72.8846 159.815 71.5717 161.422 67.8093Z" fill="#2F2E41"/>
<path d="M203.012 226.073C203.615 224.926 203.959 223.662 204.021 222.368C204.082 221.074 203.859 219.782 203.368 218.584C202.876 217.385 202.127 216.309 201.175 215.431C200.222 214.554 199.089 213.895 197.854 213.503L163.363 140.54L147.586 151.603L186.451 219.845C185.929 221.962 186.202 224.198 187.218 226.127C188.235 228.057 189.923 229.547 191.965 230.315C194.006 231.082 196.258 231.075 198.294 230.293C200.33 229.511 202.009 228.01 203.012 226.073V226.073Z" fill="#FFB8B8"/>
<path d="M171.273 152.713L152.955 160.904C152.434 161.137 151.868 161.255 151.298 161.25C150.727 161.245 150.164 161.117 149.647 160.874C149.13 160.632 148.671 160.281 148.302 159.845C147.933 159.41 147.662 158.9 147.508 158.35L142.106 139.088C140.929 136.414 140.86 133.383 141.914 130.659C142.968 127.935 145.059 125.74 147.73 124.555C150.4 123.371 153.431 123.293 156.158 124.34C158.885 125.386 161.086 127.472 162.278 130.139L173.001 146.95C173.308 147.432 173.508 147.974 173.586 148.539C173.665 149.105 173.621 149.68 173.457 150.227C173.293 150.774 173.013 151.279 172.636 151.708C172.259 152.137 171.794 152.48 171.273 152.713Z" fill="#CCCCCC"/>
<path d="M86.6732 233.307C87.935 233.014 89.1172 232.447 90.1365 231.648C91.1559 230.849 91.9876 229.836 92.573 228.68C93.1584 227.524 93.4833 226.255 93.5249 224.96C93.5665 223.665 93.3237 222.377 92.8136 221.186L125.478 147.388L106.792 142.681L80.5597 216.703C78.6162 217.692 77.1031 219.36 76.3073 221.391C75.5114 223.422 75.488 225.673 76.2416 227.72C76.9952 229.767 78.4733 231.466 80.3959 232.495C82.3185 233.525 84.552 233.814 86.6732 233.307H86.6732Z" fill="#FFB8B8"/>
<path d="M77.7689 367.073L87.2709 370.532L105.137 335.528L91.1129 330.423L77.7689 367.073Z" fill="#FFB8B8"/>
<path d="M102.383 386.028L72.5201 375.155L76.7211 363.617L95.0462 370.289C98.1063 371.403 100.598 373.687 101.974 376.639C103.35 379.59 103.497 382.968 102.383 386.028Z" fill="#2F2E41"/>
<path d="M100.244 346.929C99.6611 346.929 99.0853 346.8 98.5583 346.551L87.6382 341.378C86.743 340.958 86.0375 340.218 85.6606 339.303C85.2838 338.389 85.2629 337.367 85.6022 336.438L116.421 251.095C116.676 250.388 117.126 249.768 117.72 249.307C118.313 248.846 119.025 248.563 119.773 248.49C120.521 248.418 121.274 248.558 121.945 248.897C122.616 249.235 123.178 249.756 123.564 250.401L139.865 277.568C140.227 278.173 140.422 278.864 140.43 279.57C140.437 280.276 140.257 280.97 139.907 281.583L103.708 344.931C103.358 345.54 102.853 346.045 102.244 346.395C101.636 346.746 100.946 346.93 100.244 346.929Z" fill="#2F2E41"/>
<path d="M137.3 114.217C148.488 114.217 157.558 105.147 157.558 93.9582C157.558 82.7698 148.488 73.6998 137.3 73.6998C126.112 73.6998 117.042 82.7698 117.042 93.9582C117.042 105.147 126.112 114.217 137.3 114.217Z" fill="#FFB8B8"/>
<path d="M165.96 186.066L130.09 176.201L111.012 138.046C110.096 136.213 109.663 134.176 109.755 132.129C109.847 130.082 110.461 128.092 111.539 126.349C112.616 124.605 114.121 123.166 115.911 122.168C117.701 121.171 119.717 120.647 121.766 120.647H150.304C153.267 120.645 156.125 121.738 158.33 123.716C165.986 130.574 182.069 150.345 166.115 185.721L165.96 186.066Z" fill="#CCCCCC"/>
<path d="M121.057 160.586L102.883 152.079C102.366 151.837 101.907 151.487 101.538 151.051C101.168 150.616 100.897 150.106 100.743 149.556C100.588 149.007 100.554 148.43 100.642 147.866C100.73 147.302 100.939 146.764 101.255 146.288L112.299 129.608C113.553 126.969 115.801 124.936 118.552 123.953C121.302 122.969 124.331 123.117 126.973 124.363C129.614 125.609 131.654 127.852 132.645 130.6C133.636 133.348 133.497 136.376 132.258 139.022L126.547 158.127C126.383 158.674 126.104 159.179 125.727 159.608C125.351 160.037 124.886 160.38 124.365 160.614C123.844 160.847 123.279 160.965 122.708 160.961C122.137 160.956 121.574 160.828 121.057 160.586Z" fill="#CCCCCC"/>
<path d="M143.044 376.637H153.156L157.967 337.633L143.042 337.634L143.044 376.637Z" fill="#FFB8B8"/>
<path d="M172.658 386.026L140.877 386.028L140.877 373.749L160.379 373.748C163.635 373.748 166.759 375.041 169.062 377.344C171.364 379.647 172.658 382.77 172.658 386.026Z" fill="#2F2E41"/>
<path d="M146.862 361.775C145.953 361.776 145.071 361.464 144.365 360.891C143.66 360.317 143.173 359.518 142.988 358.628C140.081 344.933 124.985 274.784 113.202 238.651C101.214 201.888 121.631 185.143 125.845 182.16C126.294 181.843 126.65 181.412 126.878 180.912L129.94 174.177C130.258 173.481 130.768 172.892 131.411 172.479C132.054 172.065 132.803 171.845 133.567 171.845H133.592C156.546 171.982 164.262 179.218 166.514 182.323C166.846 182.785 167.074 183.315 167.181 183.874C167.289 184.433 167.273 185.009 167.136 185.561L152.613 245.48C152.523 245.852 152.502 246.237 152.552 246.616L167.002 355.41C167.071 355.933 167.036 356.464 166.898 356.973C166.76 357.482 166.522 357.959 166.197 358.375C165.873 358.791 165.469 359.139 165.009 359.397C164.55 359.655 164.043 359.82 163.519 359.88L147.329 361.748C147.174 361.766 147.018 361.775 146.862 361.775Z" fill="#2F2E41"/>
<path d="M116.013 81.2157C120.642 84.4064 126.137 86.1045 131.759 86.0821C129.754 87.4727 127.471 88.412 125.067 88.8353C132.543 90.4388 140.268 90.4822 147.761 88.9628C149.427 88.6958 151.034 88.1438 152.512 87.3311C153.249 86.9198 153.89 86.358 154.396 85.6823C154.901 85.0067 155.258 84.2322 155.444 83.4094C155.942 80.565 153.726 77.9807 151.423 76.2391C147.896 73.6133 143.83 71.8041 139.518 70.9426C135.207 70.081 130.758 70.1886 126.493 71.2575C123.708 71.9773 120.918 73.1935 119.109 75.43C117.301 77.6664 116.765 81.1142 118.488 83.4171L116.013 81.2157Z" fill="#2F2E41"/>
<path d="M487.882 169.088C493.803 169.088 498.604 164.288 498.604 158.366C498.604 152.444 493.803 147.643 487.882 147.643C481.96 147.643 477.159 152.444 477.159 158.366C477.159 164.288 481.96 169.088 487.882 169.088Z" fill="#242C41"/>
<path d="M486.819 162.456C486.578 162.457 486.343 162.379 486.15 162.234L486.138 162.225L483.618 160.296C483.501 160.206 483.402 160.095 483.328 159.968C483.254 159.84 483.206 159.7 483.187 159.554C483.167 159.408 483.177 159.259 483.215 159.117C483.253 158.975 483.318 158.841 483.408 158.724C483.497 158.607 483.609 158.509 483.737 158.436C483.864 158.362 484.005 158.314 484.151 158.295C484.297 158.276 484.445 158.286 484.587 158.324C484.73 158.362 484.863 158.428 484.98 158.518L486.612 159.77L490.469 154.74C490.558 154.623 490.67 154.525 490.797 154.451C490.924 154.378 491.065 154.33 491.211 154.311C491.357 154.292 491.505 154.301 491.647 154.339C491.789 154.377 491.922 154.443 492.039 154.532L492.015 154.565L492.039 154.533C492.274 154.714 492.428 154.981 492.467 155.275C492.506 155.569 492.427 155.867 492.246 156.102L487.709 162.019C487.604 162.156 487.47 162.266 487.315 162.342C487.161 162.417 486.991 162.457 486.819 162.456Z" fill="white"/>
<path d="M487.882 200.432C493.803 200.432 498.604 195.631 498.604 189.709C498.604 183.787 493.803 178.986 487.882 178.986C481.96 178.986 477.159 183.787 477.159 189.709C477.159 195.631 481.96 200.432 487.882 200.432Z" fill="#242C41"/>
<path d="M486.819 193.799C486.578 193.8 486.343 193.722 486.15 193.577L486.138 193.568L483.618 191.639C483.501 191.55 483.402 191.438 483.328 191.311C483.254 191.183 483.206 191.043 483.187 190.897C483.167 190.751 483.177 190.602 483.215 190.46C483.253 190.318 483.318 190.184 483.408 190.068C483.497 189.951 483.609 189.853 483.737 189.779C483.864 189.705 484.005 189.658 484.151 189.638C484.297 189.619 484.445 189.629 484.587 189.667C484.73 189.706 484.863 189.772 484.98 189.861L486.612 191.113L490.469 186.083C490.558 185.966 490.67 185.868 490.797 185.795C490.924 185.721 491.065 185.673 491.211 185.654C491.357 185.635 491.505 185.644 491.647 185.682C491.789 185.72 491.922 185.786 492.039 185.876L492.015 185.908L492.039 185.876C492.274 186.057 492.428 186.324 492.467 186.618C492.506 186.912 492.427 187.21 492.246 187.446L487.709 193.362C487.604 193.499 487.47 193.609 487.315 193.685C487.161 193.761 486.991 193.8 486.819 193.799Z" fill="white"/>
<path d="M493.655 236.724C499.577 236.724 504.378 231.923 504.378 226.001C504.378 220.079 499.577 215.278 493.655 215.278C487.733 215.278 482.933 220.079 482.933 226.001C482.933 231.923 487.733 236.724 493.655 236.724Z" fill="#242C41"/>
<path d="M492.592 230.092C492.351 230.092 492.116 230.014 491.923 229.869L491.911 229.86L489.391 227.931C489.274 227.842 489.176 227.73 489.102 227.603C489.028 227.476 488.98 227.335 488.96 227.189C488.941 227.043 488.95 226.895 488.988 226.752C489.026 226.61 489.092 226.477 489.181 226.36C489.271 226.243 489.383 226.145 489.51 226.071C489.638 225.998 489.779 225.95 489.925 225.931C490.071 225.911 490.219 225.921 490.361 225.96C490.503 225.998 490.637 226.064 490.753 226.154L492.385 227.405L496.243 222.375C496.332 222.258 496.444 222.16 496.571 222.087C496.698 222.013 496.839 221.965 496.985 221.946C497.13 221.927 497.278 221.937 497.42 221.975C497.562 222.013 497.696 222.078 497.812 222.168L497.788 222.2L497.813 222.168C498.048 222.349 498.202 222.616 498.241 222.91C498.28 223.204 498.2 223.502 498.02 223.738L493.483 229.655C493.378 229.791 493.243 229.901 493.089 229.977C492.934 230.053 492.765 230.092 492.592 230.092Z" fill="white"/>
<path d="M597.052 315.527C596.94 315.527 596.87 315.524 596.846 315.522L583.534 315.524V313.561H596.894C597.203 313.572 603.515 313.75 609.329 306.695C617.995 296.179 625.111 270.147 609.802 205.849C589.217 119.39 606.386 43.0092 614.723 14.1831C615.133 12.7569 615.207 11.2548 614.937 9.79535C614.668 8.33592 614.062 6.95919 613.169 5.77392C612.276 4.58865 611.12 3.62732 609.791 2.96589C608.462 2.30447 606.998 1.96108 605.514 1.96285H406.704C405.192 1.96487 403.703 2.32325 402.356 3.00891C401.009 3.69457 399.842 4.68819 398.951 5.9091C395.419 10.7673 390.573 20.1003 387.54 36.976L385.608 36.6291C388.707 19.3868 393.711 9.77916 397.363 4.75516C398.437 3.28402 399.842 2.08674 401.465 1.26052C403.088 0.434305 404.883 0.00244362 406.704 5.34205e-06H605.514C607.303 -0.00171579 609.067 0.412478 610.668 1.20986C612.269 2.00725 613.662 3.16598 614.738 4.59451C615.814 6.02303 616.543 7.68222 616.868 9.44097C617.193 11.1997 617.104 13.0099 616.608 14.7284C608.314 43.405 591.234 119.39 611.712 205.394C627.236 270.597 619.773 297.193 610.779 308.022C604.846 315.165 598.309 315.527 597.052 315.527Z" fill="#E6E6E6"/>
<path d="M561.23 351.348C561.119 351.348 561.049 351.345 561.024 351.344L547.712 351.345V349.383H561.073C561.384 349.392 567.693 349.572 573.508 342.516C582.173 332 589.29 305.969 573.98 241.67C553.395 155.212 570.564 78.8308 578.901 50.0046C579.312 48.5785 579.385 47.0764 579.116 45.6169C578.846 44.1575 578.241 42.7808 577.348 41.5955C576.455 40.4102 575.298 39.4489 573.969 38.7875C572.641 38.1261 571.177 37.7827 569.693 37.7844H370.882C369.371 37.7864 367.881 38.1448 366.534 38.8305C365.187 39.5161 364.021 40.5097 363.13 41.7307C359.598 46.5889 354.751 55.9219 351.718 72.7976L349.786 72.4506C352.885 55.2083 357.889 45.6007 361.542 40.5767C362.615 39.1056 364.021 37.9083 365.643 37.0821C367.266 36.2559 369.061 35.824 370.882 35.8216H569.693C571.481 35.8198 573.245 36.2341 574.846 37.0314C576.447 37.8288 577.841 38.9876 578.917 40.4161C579.993 41.8446 580.722 43.5038 581.046 45.2626C581.371 47.0213 581.282 48.8315 580.787 50.55C572.493 79.2266 555.413 155.211 575.89 241.216C591.414 306.418 583.951 333.014 574.957 343.844C569.025 350.987 562.488 351.348 561.23 351.348Z" fill="#CCCCCC"/>
<path d="M540.068 277.041C519.588 191.037 536.67 115.046 544.967 86.3753C545.462 84.6567 545.55 82.8469 545.224 81.0884C544.899 79.33 544.17 77.6712 543.095 76.2428C542.019 74.8143 540.626 73.6554 539.026 72.8573C537.425 72.0592 535.662 71.6439 533.873 71.644H335.059C333.239 71.6458 331.444 72.0769 329.822 72.9025C328.199 73.728 326.795 74.9245 325.722 76.395C317.696 87.4311 301.043 124.028 319.643 225.292C329.59 279.466 329.442 316.402 326.192 340.734C324.369 354.434 321.556 364.134 319.007 370.675L318.736 371.368C318.199 372.691 317.919 374.105 317.911 375.533C317.892 377.146 318.215 378.744 318.859 380.223C319.503 381.701 320.453 383.027 321.647 384.111C322.425 384.84 323.306 385.452 324.262 385.926C325.055 386.33 325.894 386.638 326.761 386.841C327.644 387.057 328.55 387.165 329.458 387.163H525.205C525.23 387.163 525.295 387.171 525.411 387.171C526.665 387.171 533.206 386.808 539.136 379.665C548.127 368.835 555.591 342.243 540.068 277.041ZM537.684 378.337C531.869 385.398 525.56 385.216 525.254 385.208H329.458C327.891 385.208 326.347 384.823 324.962 384.089C323.578 383.354 322.394 382.291 321.515 380.993C320.742 379.871 320.222 378.594 319.993 377.251C319.764 375.907 319.83 374.53 320.187 373.215C320.281 372.833 320.402 372.458 320.55 372.093C323.461 364.612 325.619 356.859 326.992 348.949C331.644 323.586 332.51 284.448 321.573 224.937C303.114 124.424 319.437 88.3796 327.305 77.5497C328.198 76.3306 329.365 75.3385 330.712 74.6536C332.059 73.9687 333.548 73.6102 335.059 73.6071H533.873C535.357 73.606 536.82 73.9498 538.148 74.6112C539.475 75.2726 540.631 76.2335 541.524 77.4181C542.417 78.6027 543.022 79.9787 543.292 81.4372C543.561 82.8958 543.488 84.3971 543.079 85.8227C534.74 114.65 517.575 191.037 538.163 277.495C553.471 341.79 546.353 367.821 537.684 378.337Z" fill="#3F3D56"/>
<path d="M445.617 165.294H343.186C341.104 165.294 339.107 164.467 337.634 162.995C336.162 161.523 335.335 159.526 335.335 157.443C335.335 155.361 336.162 153.364 337.634 151.892C339.107 150.419 341.104 149.592 343.186 149.592H445.617C447.7 149.592 449.697 150.419 451.169 151.892C452.641 153.364 453.469 155.361 453.469 157.443C453.469 159.526 452.641 161.523 451.169 162.995C449.697 164.467 447.7 165.294 445.617 165.294Z" fill="#CCCCCC"/>
<path d="M445.617 199.112H343.186C341.104 199.112 339.107 198.285 337.634 196.813C336.162 195.34 335.335 193.343 335.335 191.261C335.335 189.179 336.162 187.182 337.634 185.709C339.107 184.237 341.104 183.41 343.186 183.41H445.617C447.7 183.41 449.697 184.237 451.169 185.709C452.641 187.182 453.469 189.179 453.469 191.261C453.469 193.343 452.641 195.34 451.169 196.813C449.697 198.285 447.7 199.112 445.617 199.112Z" fill="#CCCCCC"/>
<path d="M453.865 233.755H351.434C349.352 233.755 347.355 232.928 345.882 231.455C344.41 229.983 343.583 227.986 343.583 225.903C343.583 223.821 344.41 221.824 345.882 220.352C347.355 218.879 349.352 218.052 351.434 218.052H453.865C455.948 218.052 457.945 218.879 459.417 220.352C460.889 221.824 461.717 223.821 461.717 225.903C461.717 227.986 460.889 229.983 459.417 231.455C457.945 232.928 455.948 233.755 453.865 233.755Z" fill="#CCCCCC"/>
<path d="M459.639 270.047H357.208C355.126 270.047 353.129 269.22 351.656 267.747C350.184 266.275 349.357 264.278 349.357 262.196C349.357 260.113 350.184 258.116 351.656 256.644C353.129 255.171 355.126 254.344 357.208 254.344H459.639C461.721 254.344 463.718 255.171 465.191 256.644C466.663 258.116 467.49 260.113 467.49 262.196C467.49 264.278 466.663 266.275 465.191 267.747C463.718 269.22 461.721 270.047 459.639 270.047Z" fill="#CCCCCC"/>
<path d="M459.683 104.332H386.077C385.045 104.333 384.023 104.131 383.07 103.737C382.116 103.343 381.25 102.765 380.52 102.035C379.79 101.306 379.211 100.44 378.816 99.4873C378.421 98.5342 378.217 97.5126 378.217 96.4808C378.217 95.4491 378.421 94.4275 378.816 93.4744C379.211 92.5213 379.79 91.6554 380.52 90.9263C381.25 90.1971 382.116 89.6189 383.07 89.2249C384.023 88.8308 385.045 88.6285 386.077 88.6295H459.683C461.765 88.6295 463.762 89.4567 465.234 90.9291C466.707 92.4015 467.534 94.3985 467.534 96.4808C467.534 98.5631 466.707 100.56 465.234 102.033C463.762 103.505 461.765 104.332 459.683 104.332Z" fill="#242C41"/>
<path d="M500.254 272.918C506.176 272.918 510.977 268.117 510.977 262.196C510.977 256.274 506.176 251.473 500.254 251.473C494.332 251.473 489.531 256.274 489.531 262.196C489.531 268.117 494.332 272.918 500.254 272.918Z" fill="#CCCCCC"/>
<path d="M464.588 305.514H362.157C360.075 305.514 358.078 304.687 356.605 303.215C355.133 301.742 354.306 299.745 354.306 297.663C354.306 295.581 355.133 293.584 356.605 292.111C358.078 290.639 360.075 289.812 362.157 289.812H464.588C466.67 289.812 468.667 290.639 470.14 292.111C471.612 293.584 472.439 295.581 472.439 297.663C472.439 299.745 471.612 301.742 470.14 303.215C468.667 304.687 466.67 305.514 464.588 305.514Z" fill="#CCCCCC"/>
<path d="M505.203 308.386C511.125 308.386 515.925 303.585 515.925 297.663C515.925 291.741 511.125 286.94 505.203 286.94C499.281 286.94 494.48 291.741 494.48 297.663C494.48 303.585 499.281 308.386 505.203 308.386Z" fill="#CCCCCC"/>
</svg>
