<svg width="45" height="45" viewBox="0 0 45 45" fill="none" xmlns="http://www.w3.org/2000/svg">
<circle cx="22.5" cy="22.5" r="22.5" fill="#E5E8F1"/>
<path d="M27 32V30C27 28.9391 26.5786 27.9217 25.8284 27.1716C25.0783 26.4214 24.0609 26 23 26H15C13.9391 26 12.9217 26.4214 12.1716 27.1716C11.4214 27.9217 11 28.9391 11 30V32" stroke="#242C41" stroke-width="2" stroke-linecap="round" stroke-linejoin="round"/>
<path d="M19 22C21.2091 22 23 20.2091 23 18C23 15.7909 21.2091 14 19 14C16.7909 14 15 15.7909 15 18C15 20.2091 16.7909 22 19 22Z" stroke="#242C41" stroke-width="2" stroke-linecap="round" stroke-linejoin="round"/>
<path d="M33 32V30C32.9993 29.1137 32.7044 28.2528 32.1614 27.5523C31.6184 26.8519 30.8581 26.3516 30 26.13" stroke="#242C41" stroke-width="2" stroke-linecap="round" stroke-linejoin="round"/>
<path d="M26 14.13C26.8604 14.3503 27.623 14.8507 28.1676 15.5523C28.7122 16.2539 29.0078 17.1168 29.0078 18.005C29.0078 18.8932 28.7122 19.7561 28.1676 20.4577C27.623 21.1593 26.8604 21.6597 26 21.88" stroke="#242C41" stroke-width="2" stroke-linecap="round" stroke-linejoin="round"/>
</svg>
