<svg width="693" height="526" viewBox="0 0 693 526" fill="none" xmlns="http://www.w3.org/2000/svg">
<circle r="245.5" transform="matrix(-1 0 0 1 464.092 279.585)" fill="#E5E8F1"/>
<mask id="mask0" mask-type="alpha" maskUnits="userSpaceOnUse" x="47" y="48" width="263" height="258">
<path d="M70.5517 113.206C37.0073 170.219 57.6842 245.131 117.514 280.333C177.344 315.535 252.87 297.225 286.414 240.213C319.958 183.2 299.282 108.288 239.452 73.0863C179.622 37.8842 104.096 56.1937 70.5517 113.206Z" fill="#C4C4C4" stroke="#E5E8F1" stroke-width="14" stroke-linecap="round"/>
</mask>
<g mask="url(#mask0)">
<line x1="7" y1="-7" x2="255.565" y2="-7" transform="matrix(-0.861884 -0.507105 -0.507105 0.861884 360.975 121.704)" stroke="#E5E8F1" stroke-width="14" stroke-linecap="round"/>
<line x1="7" y1="-7" x2="255.565" y2="-7" transform="matrix(-0.861884 -0.507105 -0.507105 0.861884 272.493 272.09)" stroke="#E5E8F1" stroke-width="14" stroke-linecap="round"/>
<line x1="7" y1="-7" x2="255.565" y2="-7" transform="matrix(-0.861884 -0.507105 -0.507105 0.861884 316.734 196.897)" stroke="#E5E8F1" stroke-width="14" stroke-linecap="round"/>
<line x1="7" y1="-7" x2="255.565" y2="-7" transform="matrix(-0.861884 -0.507105 -0.507105 0.861884 228.252 347.283)" stroke="#E5E8F1" stroke-width="14" stroke-linecap="round"/>
<line x1="7" y1="-7" x2="255.565" y2="-7" transform="matrix(-0.861884 -0.507105 -0.507105 0.861884 338.855 159.3)" stroke="#E5E8F1" stroke-width="14" stroke-linecap="round"/>
<line x1="7" y1="-7" x2="255.565" y2="-7" transform="matrix(-0.861884 -0.507105 -0.507105 0.861884 250.372 309.686)" stroke="#E5E8F1" stroke-width="14" stroke-linecap="round"/>
<line x1="7" y1="-7" x2="255.565" y2="-7" transform="matrix(-0.861884 -0.507105 -0.507105 0.861884 294.614 234.493)" stroke="#E5E8F1" stroke-width="14" stroke-linecap="round"/>
<line x1="7" y1="-7" x2="255.565" y2="-7" transform="matrix(-0.861884 -0.507105 -0.507105 0.861884 206.131 384.879)" stroke="#E5E8F1" stroke-width="14" stroke-linecap="round"/>
<line x1="7" y1="-7" x2="255.565" y2="-7" transform="matrix(-0.861884 -0.507105 -0.507105 0.861884 351.543 141.46)" stroke="#E5E8F1" stroke-width="14" stroke-linecap="round"/>
<line x1="7" y1="-7" x2="255.565" y2="-7" transform="matrix(-0.861884 -0.507105 -0.507105 0.861884 263.061 291.846)" stroke="#E5E8F1" stroke-width="14" stroke-linecap="round"/>
<line x1="7" y1="-7" x2="255.565" y2="-7" transform="matrix(-0.861884 -0.507105 -0.507105 0.861884 307.302 216.653)" stroke="#E5E8F1" stroke-width="14" stroke-linecap="round"/>
<line x1="7" y1="-7" x2="255.565" y2="-7" transform="matrix(-0.861884 -0.507105 -0.507105 0.861884 218.82 367.039)" stroke="#E5E8F1" stroke-width="14" stroke-linecap="round"/>
<line x1="7" y1="-7" x2="255.565" y2="-7" transform="matrix(-0.861884 -0.507105 -0.507105 0.861884 329.422 179.056)" stroke="#E5E8F1" stroke-width="14" stroke-linecap="round"/>
<line x1="7" y1="-7" x2="255.565" y2="-7" transform="matrix(-0.861884 -0.507105 -0.507105 0.861884 240.94 329.443)" stroke="#E5E8F1" stroke-width="14" stroke-linecap="round"/>
<line x1="7" y1="-7" x2="255.565" y2="-7" transform="matrix(-0.861884 -0.507105 -0.507105 0.861884 285.181 254.249)" stroke="#E5E8F1" stroke-width="14" stroke-linecap="round"/>
<line x1="7" y1="-7" x2="255.565" y2="-7" transform="matrix(-0.861884 -0.507105 -0.507105 0.861884 196.699 404.635)" stroke="#E5E8F1" stroke-width="14" stroke-linecap="round"/>
</g>
</svg>
