<svg width="547" height="437" viewBox="0 0 547 437" fill="none" xmlns="http://www.w3.org/2000/svg">
<path d="M0.0102997 407.079C0.09478 416.71 0.800262 426.325 2.12228 435.865C2.16853 436.2 2.21889 436.535 2.26534 436.87L92.456 436.366C92.7208 436.033 92.9814 435.697 93.234 435.356C94.076 434.228 94.8652 433.069 95.5896 431.869C99.0718 426.089 100.666 419.322 99.0684 414.653L99.0398 414.581C98.695 413.558 98.1516 412.614 97.4408 411.802C93.7986 407.702 86.4343 408.386 79.7513 411.695C85.7455 405.134 90.5184 396.855 90.8811 389.464C91.2367 382.256 87.4674 377.106 83.3792 372.73C83.2451 372.586 83.111 372.445 82.9768 372.304C82.9117 372.232 82.8427 372.164 82.7778 372.091C79.5881 368.756 75.8695 365.469 70.4871 365.867C64.584 366.304 58.0392 371.248 53.4502 377.01C48.8613 382.767 45.8118 389.308 42.7208 395.692C39.6258 402.071 36.2774 408.614 31.311 414.066C38.0376 405.558 43.4611 395.877 45.4645 386.462C47.4679 377.047 45.7048 368.005 39.7097 363.57C37.8897 362.266 35.7837 361.416 33.5679 361.092C33.3092 361.049 33.0465 361.014 32.7797 360.983C27.2299 360.352 20.6037 362.271 14.966 366.859C8.75727 371.911 4.45271 379.4 2.31097 386.51C0.169395 393.619 -0.0588226 400.463 0.0102997 407.079Z" fill="#E5E8F1"/>
<path d="M59.0184 436.553L60.743 436.543C61.2906 436.201 61.8408 435.863 62.3936 435.528C62.7358 435.312 63.0819 435.104 63.4283 434.892C69.1488 431.398 74.9052 428.047 80.6973 424.838C86.4841 421.627 92.3 418.564 98.1451 415.648C98.3 415.581 98.4264 415.461 98.5023 415.31C98.5782 415.159 98.5988 414.986 98.5606 414.822C98.5543 414.8 98.5446 414.78 98.5318 414.761C98.4503 414.608 98.2681 414.545 98.0022 414.675C97.2852 415.035 96.5642 415.394 95.8473 415.762C89.9863 418.727 84.1504 421.841 78.3397 425.102C72.533 428.362 66.7595 431.766 61.0189 435.314C60.8982 435.387 60.7774 435.465 60.6567 435.538C60.1093 435.876 59.5658 436.215 59.0184 436.553Z" fill="#242C41"/>
<path d="M36.7816 436.677L37.848 436.671C38.0886 436.335 38.3249 435.998 38.5655 435.661C44.2167 427.737 49.8667 419.812 55.5156 411.887C64.7663 398.913 74.0142 385.939 83.2593 372.965C83.3141 372.895 83.3549 372.816 83.3793 372.73C83.4584 372.443 83.2474 372.275 82.9769 372.304C82.8629 372.321 82.7537 372.361 82.6565 372.423C82.5593 372.485 82.4765 372.567 82.4134 372.663C77.227 379.939 72.0419 387.212 66.8581 394.482C57.6556 407.391 48.4544 420.299 39.2545 433.206C38.6693 434.025 38.0842 434.848 37.499 435.667C37.2585 436.004 37.018 436.341 36.7816 436.677Z" fill="#242C41"/>
<path d="M13.0232 430.484C13.0776 432.281 13.1966 434.05 13.3519 435.802C13.382 436.137 13.4121 436.472 13.4423 436.808L14.5612 436.801C14.527 436.466 14.4928 436.131 14.4627 435.796C14.2263 433.265 14.0585 430.705 14.0358 428.075C14.006 420.785 14.7165 413.51 16.1563 406.363C17.6867 398.668 19.8842 391.12 22.7238 383.806C25.7042 376.092 29.2975 368.629 33.4692 361.489C33.5478 361.372 33.5828 361.232 33.568 361.092C33.5218 360.773 33.0972 360.679 32.7798 360.983C32.7171 361.043 32.6631 361.112 32.6194 361.186C32.1032 362.074 31.5965 362.964 31.0992 363.857C27.0812 371.037 23.6421 378.526 20.8145 386.253C18.1213 393.591 16.0726 401.15 14.6918 408.843C13.3985 415.981 12.8393 423.232 13.0232 430.484Z" fill="#242C41"/>
<path d="M176.367 421.042C176.411 426.075 176.779 431.099 177.47 436.085C177.494 436.26 177.521 436.435 177.545 436.61L224.677 436.346C224.815 436.173 224.951 435.997 225.083 435.819C225.523 435.229 225.936 434.623 226.314 433.996C228.134 430.976 228.967 427.44 228.132 425L228.117 424.962C227.937 424.428 227.653 423.934 227.282 423.51C225.378 421.368 221.53 421.725 218.037 423.454C221.17 420.025 223.664 415.699 223.854 411.837C224.039 408.07 222.07 405.379 219.933 403.092C219.863 403.016 219.793 402.943 219.723 402.869C219.689 402.831 219.653 402.796 219.619 402.758C217.952 401.015 216.009 399.297 213.196 399.505C210.111 399.733 206.691 402.317 204.293 405.328C201.895 408.337 200.301 411.755 198.686 415.091C197.069 418.425 195.319 421.844 192.724 424.693C196.239 420.247 199.073 415.188 200.12 410.268C201.167 405.348 200.245 400.622 197.113 398.305C196.161 397.623 195.061 397.179 193.903 397.01C193.768 396.988 193.63 396.969 193.491 396.953C190.591 396.623 187.128 397.626 184.182 400.024C181.028 402.733 178.731 406.301 177.569 410.293C176.45 414.008 176.33 417.584 176.367 421.042Z" fill="#E5E8F1"/>
<path d="M207.203 436.444L208.104 436.439C208.39 436.26 208.678 436.083 208.966 435.909C209.145 435.796 209.326 435.687 209.507 435.576C212.497 433.751 215.505 431.999 218.532 430.323C221.556 428.644 224.595 427.043 227.649 425.52C227.73 425.485 227.796 425.422 227.836 425.343C227.876 425.264 227.887 425.174 227.867 425.088C227.863 425.077 227.858 425.066 227.852 425.056C227.809 424.976 227.714 424.943 227.575 425.012C227.2 425.199 226.823 425.387 226.449 425.579C223.386 427.129 220.336 428.756 217.3 430.46C214.265 432.164 211.248 433.943 208.248 435.797C208.185 435.835 208.122 435.875 208.059 435.914C207.773 436.091 207.489 436.267 207.203 436.444Z" fill="#242C41"/>
<path d="M195.582 436.509L196.14 436.506C196.265 436.33 196.389 436.154 196.515 435.978C199.468 431.837 202.42 427.696 205.372 423.555C210.207 416.775 215.039 409.995 219.871 403.215C219.899 403.178 219.92 403.137 219.933 403.092C219.975 402.942 219.864 402.854 219.723 402.869C219.663 402.878 219.606 402.899 219.556 402.931C219.505 402.964 219.461 403.006 219.428 403.057C216.718 406.859 214.009 410.66 211.3 414.459C206.491 421.205 201.682 427.95 196.875 434.695C196.569 435.123 196.263 435.553 195.957 435.981C195.832 436.157 195.706 436.333 195.582 436.509Z" fill="#242C41"/>
<path d="M183.167 433.273C183.195 434.212 183.257 435.136 183.338 436.052C183.354 436.227 183.37 436.402 183.386 436.577L183.97 436.574C183.953 436.399 183.935 436.224 183.919 436.049C183.795 434.726 183.708 433.388 183.696 432.014C183.68 428.204 184.052 424.402 184.804 420.668C185.604 416.646 186.752 412.702 188.236 408.88C189.793 404.849 191.671 400.949 193.851 397.217C193.892 397.156 193.911 397.083 193.903 397.01C193.879 396.843 193.657 396.794 193.491 396.953C193.458 396.984 193.43 397.02 193.407 397.059C193.137 397.523 192.873 397.988 192.613 398.455C190.513 402.207 188.716 406.121 187.238 410.158C185.831 413.993 184.76 417.943 184.039 421.964C183.363 425.694 183.071 429.483 183.167 433.273Z" fill="#242C41"/>
<path d="M448.497 237.646H536.826C539.268 237.643 541.609 236.671 543.336 234.944C545.063 233.218 546.035 230.876 546.037 228.434V122.335C546.035 119.892 545.063 117.551 543.336 115.824C541.609 114.097 539.268 113.126 536.826 113.123H448.497C446.054 113.126 443.713 114.097 441.986 115.824C440.259 117.551 439.288 119.892 439.285 122.335V228.434C439.288 230.876 440.259 233.218 441.986 234.944C443.713 236.671 446.054 237.643 448.497 237.646ZM536.826 114.298C538.956 114.301 540.999 115.148 542.506 116.655C544.012 118.161 544.86 120.204 544.862 122.335V228.434C544.86 230.564 544.012 232.607 542.506 234.114C540.999 235.62 538.956 236.468 536.826 236.47H448.497C446.366 236.468 444.324 235.62 442.817 234.114C441.31 232.607 440.463 230.564 440.461 228.434V122.335C440.463 120.204 441.31 118.161 442.817 116.655C444.324 115.148 446.366 114.301 448.497 114.298H536.826Z" fill="#3F3D56"/>
<path d="M472.014 121.844H513.309C515.257 121.842 517.124 121.067 518.502 119.69C519.879 118.313 520.654 116.445 520.656 114.497V112.924C520.654 110.976 519.879 109.108 518.502 107.731C517.124 106.354 515.257 105.579 513.309 105.577H472.014C470.066 105.579 468.198 106.354 466.821 107.731C465.444 109.108 464.669 110.976 464.667 112.924V114.497C464.669 116.445 465.444 118.313 466.821 119.69C468.198 121.067 470.066 121.842 472.014 121.844Z" fill="#CCCCCC"/>
<path d="M452.155 179.566H533.167C533.717 179.566 534.261 179.459 534.769 179.249C535.277 179.039 535.738 178.731 536.127 178.343C536.516 177.954 536.824 177.493 537.035 176.986C537.245 176.478 537.353 175.934 537.353 175.384C537.353 174.835 537.245 174.291 537.035 173.783C536.824 173.275 536.516 172.814 536.127 172.426C535.738 172.038 535.277 171.73 534.769 171.52C534.261 171.31 533.717 171.202 533.167 171.203H452.155C451.047 171.204 449.985 171.645 449.202 172.429C448.419 173.213 447.979 174.276 447.979 175.384C447.979 176.492 448.419 177.555 449.202 178.339C449.985 179.123 451.047 179.564 452.155 179.566Z" fill="#242C41"/>
<path d="M452.155 197.336H533.167C533.717 197.336 534.261 197.229 534.769 197.019C535.277 196.809 535.738 196.501 536.127 196.113C536.516 195.724 536.824 195.263 537.035 194.756C537.245 194.248 537.353 193.704 537.353 193.154C537.353 192.605 537.245 192.061 537.035 191.553C536.824 191.046 536.516 190.584 536.127 190.196C535.738 189.808 535.277 189.5 534.769 189.29C534.261 189.08 533.717 188.972 533.167 188.973H452.155C451.047 188.974 449.985 189.416 449.202 190.2C448.419 190.984 447.979 192.046 447.979 193.154C447.979 194.262 448.419 195.325 449.202 196.109C449.985 196.893 451.047 197.334 452.155 197.336Z" fill="#242C41"/>
<path d="M473.846 161.795H511.477C512.026 161.796 512.571 161.688 513.079 161.478C513.586 161.268 514.048 160.961 514.437 160.572C514.826 160.184 515.134 159.723 515.344 159.215C515.555 158.708 515.663 158.163 515.663 157.614C515.663 157.064 515.555 156.52 515.344 156.013C515.134 155.505 514.826 155.044 514.437 154.656C514.048 154.267 513.586 153.959 513.079 153.749C512.571 153.54 512.026 153.432 511.477 153.433H473.846C473.296 153.432 472.752 153.54 472.244 153.749C471.736 153.959 471.275 154.267 470.886 154.656C470.497 155.044 470.189 155.505 469.978 156.013C469.768 156.52 469.659 157.064 469.659 157.614C469.659 158.163 469.768 158.708 469.978 159.215C470.189 159.723 470.497 160.184 470.886 160.572C471.275 160.961 471.736 161.268 472.244 161.478C472.752 161.688 473.296 161.796 473.846 161.795Z" fill="#242C41"/>
<path d="M260.863 132.069H349.192C351.634 132.066 353.975 131.095 355.702 129.368C357.429 127.641 358.401 125.299 358.403 122.857V16.7575C358.401 14.3153 357.429 11.9739 355.702 10.247C353.975 8.52006 351.634 7.54867 349.192 7.5459H260.863C258.421 7.54867 256.079 8.52006 254.352 10.247C252.625 11.9739 251.654 14.3153 251.651 16.7575V122.857C251.654 125.299 252.625 127.641 254.352 129.368C256.079 131.095 258.421 132.066 260.863 132.069ZM349.192 8.72142C351.322 8.72381 353.365 9.57123 354.872 11.0778C356.378 12.5843 357.226 14.6269 357.228 16.7575V122.857C357.226 124.988 356.378 127.03 354.872 128.537C353.365 130.043 351.322 130.891 349.192 130.893H260.863C258.732 130.891 256.69 130.043 255.183 128.537C253.676 127.03 252.829 124.988 252.827 122.857V16.7575C252.829 14.6269 253.676 12.5843 255.183 11.0778C256.69 9.57123 258.732 8.72381 260.863 8.72142H349.192Z" fill="#3F3D56"/>
<path d="M284.379 16.2676H325.675C327.623 16.2654 329.49 15.4906 330.868 14.1133C332.245 12.7359 333.02 10.8685 333.022 8.92059V7.34701C333.02 5.39913 332.245 3.53167 330.868 2.15431C329.49 0.776952 327.623 0.00219039 325.675 0H284.379C282.432 0.00219039 280.564 0.776952 279.187 2.15431C277.809 3.53167 277.035 5.39913 277.032 7.34701V8.92059C277.035 10.8685 277.809 12.7359 279.187 14.1133C280.564 15.4906 282.432 16.2654 284.379 16.2676Z" fill="#CCCCCC"/>
<path d="M264.521 73.9886H345.533C346.083 73.9893 346.627 73.8816 347.135 73.6718C347.643 73.4619 348.104 73.154 348.493 72.7657C348.882 72.3774 349.19 71.9162 349.401 71.4086C349.611 70.901 349.719 70.3569 349.719 69.8074C349.719 69.2578 349.611 68.7137 349.401 68.2061C349.19 67.6985 348.882 67.2373 348.493 66.849C348.104 66.4607 347.643 66.1528 347.135 65.943C346.627 65.7331 346.083 65.6255 345.533 65.6261H264.521C263.972 65.6255 263.428 65.7331 262.92 65.943C262.412 66.1528 261.95 66.4607 261.561 66.849C261.173 67.2373 260.864 67.6985 260.654 68.2061C260.443 68.7137 260.335 69.2578 260.335 69.8074C260.335 70.3569 260.443 70.901 260.654 71.4086C260.864 71.9162 261.173 72.3774 261.561 72.7657C261.95 73.154 262.412 73.4619 262.92 73.6718C263.428 73.8816 263.972 73.9893 264.521 73.9886Z" fill="#242C41"/>
<path d="M264.521 91.7589H345.533C346.082 91.7589 346.626 91.6507 347.133 91.4406C347.64 91.2305 348.101 90.9225 348.49 90.5342C348.878 90.1459 349.186 89.685 349.396 89.1777C349.606 88.6704 349.714 88.1267 349.714 87.5776C349.714 87.0285 349.606 86.4848 349.396 85.9775C349.186 85.4702 348.878 85.0093 348.49 84.621C348.101 84.2328 347.64 83.9248 347.133 83.7146C346.626 83.5045 346.082 83.3964 345.533 83.3964H264.521C263.972 83.3964 263.428 83.5045 262.921 83.7146C262.414 83.9248 261.953 84.2328 261.565 84.621C261.176 85.0093 260.868 85.4702 260.658 85.9775C260.448 86.4848 260.34 87.0285 260.34 87.5776C260.34 88.1267 260.448 88.6704 260.658 89.1777C260.868 89.685 261.176 90.1459 261.565 90.5342C261.953 90.9225 262.414 91.2305 262.921 91.4406C263.428 91.6507 263.972 91.7589 264.521 91.7589Z" fill="#242C41"/>
<path d="M286.212 56.2182H323.843C324.392 56.2189 324.937 56.1112 325.445 55.9014C325.952 55.6915 326.414 55.3837 326.803 54.9953C327.192 54.607 327.5 54.1458 327.71 53.6382C327.921 53.1306 328.029 52.5865 328.029 52.037C328.029 51.4875 327.921 50.9433 327.71 50.4357C327.5 49.9281 327.192 49.4669 326.803 49.0786C326.414 48.6903 325.952 48.3824 325.445 48.1726C324.937 47.9627 324.392 47.8551 323.843 47.8557H286.212C285.103 47.8557 284.039 48.2962 283.255 49.0804C282.471 49.8645 282.03 50.928 282.03 52.037C282.03 53.1459 282.471 54.2094 283.255 54.9936C284.039 55.7777 285.103 56.2182 286.212 56.2182Z" fill="#242C41"/>
<path d="M80.6548 310.834L158.214 353.102C160.36 354.268 162.881 354.536 165.223 353.846C167.566 353.156 169.539 351.565 170.71 349.422L221.482 256.259C222.649 254.113 222.916 251.592 222.226 249.25C221.536 246.907 219.945 244.934 217.802 243.762L140.243 201.494C138.097 200.328 135.576 200.06 133.234 200.75C130.891 201.44 128.917 203.031 127.746 205.175L76.9744 298.337C75.8082 300.483 75.5407 303.004 76.2307 305.347C76.9206 307.689 78.5117 309.663 80.6548 310.834ZM217.239 244.795C219.109 245.816 220.497 247.538 221.099 249.582C221.701 251.625 221.468 253.824 220.45 255.696L169.678 348.859C168.657 350.729 166.935 352.117 164.891 352.719C162.848 353.321 160.648 353.087 158.777 352.07L81.2173 309.802C79.3477 308.78 77.9596 307.059 77.3577 305.015C76.7558 302.971 76.9892 300.772 78.0066 298.9L128.778 205.737C129.8 203.867 131.522 202.479 133.565 201.877C135.609 201.276 137.808 201.509 139.68 202.526L217.239 244.795Z" fill="#3F3D56"/>
<path d="M156.719 220.406L192.979 240.167C194.69 241.097 196.701 241.31 198.57 240.76C200.438 240.21 202.012 238.941 202.946 237.231L203.699 235.85C204.629 234.138 204.843 232.128 204.292 230.259C203.742 228.391 202.473 226.817 200.764 225.883L164.503 206.122C162.792 205.191 160.781 204.978 158.913 205.528C157.044 206.079 155.47 207.348 154.536 209.057L153.783 210.439C152.853 212.15 152.64 214.161 153.19 216.029C153.74 217.898 155.01 219.472 156.719 220.406Z" fill="#CCCCCC"/>
<path d="M111.66 261.586L182.795 300.353C183.277 300.616 183.806 300.781 184.352 300.839C184.898 300.897 185.45 300.847 185.977 300.692C186.504 300.537 186.995 300.28 187.422 299.935C187.849 299.59 188.204 299.164 188.467 298.682C188.73 298.2 188.895 297.671 188.953 297.125C189.011 296.579 188.962 296.027 188.806 295.5C188.651 294.973 188.394 294.482 188.049 294.055C187.704 293.628 187.279 293.273 186.796 293.01L115.662 254.243C114.688 253.713 113.544 253.59 112.48 253.904C111.416 254.217 110.521 254.94 109.99 255.914C109.459 256.888 109.337 258.032 109.65 259.096C109.964 260.16 110.687 261.055 111.66 261.586Z" fill="#CCCCCC"/>
<path d="M103.157 277.19L174.291 315.957C174.773 316.219 175.302 316.385 175.848 316.443C176.394 316.501 176.946 316.451 177.473 316.296C178 316.141 178.491 315.884 178.918 315.539C179.345 315.194 179.7 314.768 179.963 314.286C180.226 313.804 180.391 313.275 180.449 312.729C180.508 312.183 180.458 311.631 180.303 311.104C180.148 310.577 179.89 310.086 179.545 309.659C179.2 309.232 178.775 308.876 178.293 308.614L107.158 269.847C106.676 269.584 106.147 269.419 105.601 269.361C105.055 269.302 104.503 269.352 103.976 269.508C103.45 269.663 102.959 269.92 102.531 270.265C102.104 270.61 101.749 271.035 101.486 271.518C101.223 272 101.058 272.529 101 273.075C100.942 273.621 100.992 274.173 101.147 274.7C101.302 275.226 101.559 275.717 101.904 276.145C102.249 276.572 102.675 276.927 103.157 277.19Z" fill="#CCCCCC"/>
<path d="M139.21 256.362L172.253 274.37C172.735 274.633 173.264 274.798 173.81 274.856C174.356 274.914 174.908 274.864 175.435 274.709C175.962 274.554 176.453 274.297 176.88 273.952C177.307 273.607 177.662 273.181 177.925 272.699C178.188 272.217 178.353 271.688 178.411 271.142C178.47 270.596 178.42 270.044 178.265 269.517C178.109 268.99 177.852 268.499 177.507 268.072C177.162 267.645 176.737 267.29 176.255 267.027L143.212 249.019C142.729 248.756 142.2 248.591 141.654 248.533C141.108 248.475 140.556 248.524 140.029 248.68C139.503 248.835 139.012 249.092 138.584 249.437C138.157 249.782 137.802 250.208 137.539 250.69C137.276 251.172 137.111 251.701 137.053 252.247C136.995 252.793 137.045 253.345 137.2 253.872C137.355 254.399 137.612 254.89 137.957 255.317C138.302 255.744 138.728 256.099 139.21 256.362Z" fill="#CCCCCC"/>
<path d="M381.93 96.084L423.242 120.07L422.652 121.087L381.339 97.1005L381.93 96.084Z" fill="#3F3D56"/>
<path d="M380.175 102.522L374.34 92.3561L386.061 92.3837L380.175 102.522Z" fill="#3F3D56"/>
<path d="M259.661 253.878C259.755 253.878 259.847 253.856 259.929 253.814L418.712 172.249C418.851 172.177 418.955 172.054 419.002 171.905C419.05 171.757 419.037 171.596 418.965 171.458C418.894 171.319 418.771 171.215 418.623 171.167C418.475 171.119 418.314 171.132 418.175 171.203L259.392 252.768C259.275 252.828 259.181 252.926 259.126 253.046C259.072 253.166 259.059 253.301 259.09 253.429C259.121 253.557 259.194 253.671 259.298 253.753C259.401 253.834 259.529 253.878 259.661 253.878Z" fill="#3F3D56"/>
<path d="M263.865 257.721L252.157 257.145L258.508 247.293L263.865 257.721Z" fill="#3F3D56"/>
<path d="M95.8284 321.318C96.6548 320.907 97.381 320.319 97.9558 319.597C98.5306 318.875 98.9401 318.035 99.1553 317.138C99.3706 316.24 99.3864 315.306 99.2017 314.402C99.017 313.497 98.6363 312.645 98.0863 311.903L102.808 265.74H92.6042L88.8519 310.816C87.6677 311.823 86.894 313.228 86.6771 314.767C86.4603 316.306 86.8155 317.871 87.6754 319.166C88.5354 320.46 89.8403 321.394 91.3429 321.791C92.8455 322.188 94.4415 322.02 95.8284 321.318V321.318Z" fill="#A0616A"/>
<path d="M105.197 240.264C97.2241 240.264 90.7609 233.801 90.7609 225.828C90.7609 217.855 97.2241 211.392 105.197 211.392C113.17 211.392 119.633 217.855 119.633 225.828C119.633 233.801 113.17 240.264 105.197 240.264Z" fill="#A0616A"/>
<path d="M108.482 292.563L130.027 287.858C130.594 287.733 131.103 287.426 131.478 286.984C131.854 286.542 132.073 285.989 132.104 285.41C132.353 280.602 132.532 268.165 128.829 256.554C128.113 254.328 126.959 252.268 125.434 250.496C123.908 248.724 122.043 247.276 119.948 246.238C117.853 245.199 115.571 244.591 113.238 244.45C110.904 244.309 108.565 244.637 106.36 245.416C104.034 246.233 101.907 247.533 100.118 249.231C98.3291 250.928 96.9195 252.985 95.9815 255.265C95.0435 257.546 94.5982 259.999 94.675 262.464C94.7517 264.929 95.3487 267.349 96.4268 269.567C101.205 279.378 104.214 286.483 105.37 290.685C105.55 291.337 105.973 291.895 106.552 292.244C107.131 292.594 107.822 292.708 108.482 292.563Z" fill="#242C41"/>
<path d="M128.778 429.707L135.984 429.706L139.412 401.912L128.777 401.913L128.778 429.707Z" fill="#A0616A"/>
<path d="M141.132 427.647H127.235V436.397H149.881C149.881 434.077 148.96 431.851 147.319 430.21C145.678 428.569 143.452 427.647 141.132 427.647Z" fill="#2F2E41"/>
<path d="M56.7244 420.368L63.0388 423.839L79.4343 401.136L70.1148 396.012L56.7244 420.368Z" fill="#A0616A"/>
<path d="M68.5411 424.515L56.3632 417.82L52.1478 425.487L71.9932 436.398C73.1112 434.364 73.3756 431.97 72.7282 429.741C72.0808 427.513 70.5746 425.633 68.5411 424.515Z" fill="#2F2E41"/>
<path d="M128.647 414.272L139.74 413.418C140.361 413.372 140.946 413.107 141.39 412.672C141.835 412.236 142.111 411.657 142.17 411.038C143.751 394.548 150.687 310.985 131.928 285.257L131.875 285.185L131.791 285.154C131.623 285.093 114.893 279.127 105.294 290.06C104.993 290.408 104.787 290.828 104.698 291.279C104.609 291.73 104.639 292.197 104.785 292.633L105.151 293.731C105.256 294.043 105.284 294.375 105.233 294.699C105.182 295.024 105.054 295.331 104.86 295.596C102.196 299.197 93.23 313.067 89.7062 340.341C89.6838 340.515 89.6392 340.685 89.5733 340.847L63.5566 404.759C63.4238 405.085 63.3575 405.435 63.3616 405.787C63.3658 406.139 63.4403 406.487 63.5808 406.811C63.7213 407.134 63.9249 407.425 64.1798 407.669C64.4346 407.912 64.7355 408.102 65.0648 408.227L73.2511 411.346C73.8473 411.57 74.504 411.573 75.1019 411.353C75.6997 411.134 76.199 410.707 76.5089 410.151L114.066 342.011C114.216 341.74 114.447 341.523 114.727 341.391C115.008 341.259 115.322 341.22 115.627 341.277C115.931 341.335 116.209 341.487 116.422 341.713C116.634 341.938 116.77 342.225 116.81 342.532L125.822 411.975C125.904 412.612 126.216 413.197 126.698 413.621C127.18 414.045 127.8 414.279 128.442 414.28C128.51 414.28 128.578 414.277 128.647 414.272Z" fill="#2F2E41"/>
<path d="M161.319 242.597C161.247 242.914 161.199 243.237 161.178 243.561L135.929 258.127L129.792 254.594L123.25 263.159L133.506 270.469C134.335 271.06 135.333 271.366 136.35 271.341C137.367 271.316 138.349 270.962 139.148 270.332L165.184 249.792C166.359 250.227 167.638 250.294 168.852 249.984C170.066 249.674 171.157 249.002 171.979 248.057C172.802 247.111 173.317 245.938 173.457 244.693C173.596 243.448 173.354 242.19 172.761 241.086C172.168 239.983 171.253 239.085 170.138 238.514C169.023 237.943 167.76 237.725 166.518 237.889C165.276 238.053 164.113 238.592 163.184 239.433C162.255 240.274 161.605 241.377 161.319 242.597V242.597Z" fill="#A0616A"/>
<path d="M135.582 256.671C135.506 256.299 135.351 255.947 135.127 255.64C134.902 255.333 134.615 255.079 134.283 254.893L122.696 248.414C121.157 247.226 119.209 246.697 117.28 246.943C115.351 247.189 113.599 248.189 112.406 249.725C111.214 251.261 110.679 253.208 110.919 255.137C111.16 257.067 112.155 258.822 113.688 260.019L122.926 269.612C123.19 269.886 123.509 270.1 123.863 270.239C124.217 270.378 124.596 270.439 124.976 270.418C125.355 270.397 125.726 270.295 126.062 270.118C126.398 269.941 126.693 269.694 126.925 269.393L135.085 258.817C135.318 258.516 135.482 258.169 135.568 257.798C135.654 257.428 135.659 257.043 135.582 256.671Z" fill="#242C41"/>
<path d="M105.591 276.645C105.886 276.406 106.127 276.106 106.296 275.766C106.465 275.425 106.559 275.052 106.571 274.672L106.986 261.404C107.332 259.49 106.905 257.518 105.799 255.919C104.692 254.32 102.997 253.224 101.084 252.873C99.1717 252.522 97.1979 252.944 95.5957 254.046C93.9934 255.147 92.8934 256.84 92.5369 258.751L88.2753 271.369C88.1537 271.729 88.1112 272.111 88.1505 272.489C88.1899 272.867 88.3103 273.232 88.5035 273.56C88.6967 273.887 88.9582 274.169 89.2701 274.386C89.5821 274.603 89.9372 274.75 90.3112 274.818L103.457 277.192C103.831 277.259 104.215 277.246 104.584 277.151C104.952 277.057 105.295 276.884 105.591 276.645Z" fill="#242C41"/>
<path d="M107.482 222.508C111.192 225.047 116.064 227.658 119.853 224.953C122.342 223.178 123.126 219.889 122.117 217.004C120.302 211.815 115.317 209.53 110.549 207.779C104.352 205.503 97.6034 203.692 91.2054 205.322C84.8074 206.952 79.153 213.147 80.3079 219.648C81.2367 224.875 86.1679 229.225 85.4679 234.488C84.7634 239.785 78.8064 242.573 73.5472 243.52C68.2881 244.467 62.4031 244.771 58.6236 248.549C53.8021 253.367 55.0061 261.981 59.5429 267.069C64.0797 272.156 70.9259 274.463 77.56 276.031C86.3497 278.108 95.8564 279.199 104.204 275.752C112.552 272.305 119.049 263.024 116.63 254.322C115.609 250.647 113.203 247.54 110.877 244.516C108.552 241.492 106.197 238.329 105.31 234.619C104.57 231.527 105.118 227.937 107.168 225.617C107.541 225.211 107.776 224.698 107.838 224.15C107.901 223.602 107.789 223.049 107.517 222.569L107.482 222.508Z" fill="#2F2E41"/>
<path d="M1.58838 437H225.525C225.681 437 225.831 436.938 225.941 436.828C226.051 436.718 226.113 436.568 226.113 436.412C226.113 436.256 226.051 436.107 225.941 435.997C225.831 435.886 225.681 435.824 225.525 435.824H1.58838C1.4325 435.824 1.28297 435.886 1.17274 435.997C1.06252 436.107 1.00061 436.256 1.00061 436.412C1.00061 436.568 1.06252 436.718 1.17274 436.828C1.28297 436.938 1.4325 437 1.58838 437Z" fill="#3F3D56"/>
</svg>
