<svg width="593" height="455" viewBox="0 0 593 455" fill="none" xmlns="http://www.w3.org/2000/svg">
<g clip-path="url(#clip0)">
<rect x="476.065" y="153" width="106" height="106" transform="rotate(38.5544 476.065 153)" fill="#E5E8F1"/>
<rect x="303.385" y="259" width="19.871" height="19.871" transform="rotate(38.5544 303.385 259)" fill="#E5E8F1"/>
<circle cx="412" cy="427" r="163" fill="#E5E8F1"/>
<path d="M343.902 453.678C343.816 453.536 341.758 450.1 341.044 442.967C340.39 436.423 340.811 425.392 346.532 410.004C357.37 380.854 344.034 357.334 343.898 357.1L344.556 356.718C347.123 361.632 348.978 366.886 350.064 372.323C352.75 384.983 351.772 398.146 347.245 410.27C336.426 439.37 344.469 453.146 344.552 453.282L343.902 453.678Z" fill="#E5E8F1"/>
<path d="M339.665 355.389C342.394 355.389 344.607 353.176 344.607 350.446C344.607 347.716 342.394 345.503 339.665 345.503C336.935 345.503 334.722 347.716 334.722 350.446C334.722 353.176 336.935 355.389 339.665 355.389Z" fill="#E5E8F1"/>
<path d="M355.253 373.638C357.983 373.638 360.196 371.425 360.196 368.695C360.196 365.965 357.983 363.752 355.253 363.752C352.523 363.752 350.31 365.965 350.31 368.695C350.31 371.425 352.523 373.638 355.253 373.638Z" fill="#E5E8F1"/>
<path d="M344.607 385.805C347.337 385.805 349.55 383.592 349.55 380.862C349.55 378.132 347.337 375.919 344.607 375.919C341.877 375.919 339.664 378.132 339.664 380.862C339.664 383.592 341.877 385.805 344.607 385.805Z" fill="#E5E8F1"/>
<path d="M357.534 396.07C360.264 396.07 362.477 393.857 362.477 391.127C362.477 388.398 360.264 386.185 357.534 386.185C354.804 386.185 352.591 388.398 352.591 391.127C352.591 393.857 354.804 396.07 357.534 396.07Z" fill="#E5E8F1"/>
<path d="M340.805 412.038C343.535 412.038 345.748 409.825 345.748 407.095C345.748 404.366 343.535 402.153 340.805 402.153C338.075 402.153 335.862 404.366 335.862 407.095C335.862 409.825 338.075 412.038 340.805 412.038Z" fill="#E5E8F1"/>
<path d="M346.888 453.858C346.888 453.858 341.945 441.692 356.773 432.567L346.888 453.858Z" fill="#E5E8F1"/>
<path d="M340.81 453.639C340.81 453.639 338.561 440.702 321.151 440.812L340.81 453.639Z" fill="#E5E8F1"/>
<path d="M84.6529 94.1034C80.7008 94.1034 76.8375 92.9315 73.5514 90.7358C70.2654 88.5402 67.7042 85.4194 66.1918 81.7682C64.6794 78.1169 64.2837 74.0992 65.0547 70.2231C65.8257 66.3469 67.7288 62.7864 70.5234 59.9919C73.3179 57.1974 76.8784 55.2943 80.7545 54.5232C84.6307 53.7522 88.6484 54.1479 92.2997 55.6603C95.9509 57.1727 99.0717 59.7339 101.267 63.0199C103.463 66.3059 104.635 70.1693 104.635 74.1214C104.635 79.4209 102.53 84.5034 98.7823 88.2508C95.035 91.9982 89.9524 94.1034 84.6529 94.1034ZM84.6529 54.8289C80.837 54.8289 77.1069 55.9604 73.9341 58.0804C70.7614 60.2004 68.2885 63.2136 66.8283 66.7389C65.368 70.2643 64.9859 74.1435 65.7303 77.886C66.4748 81.6286 68.3123 85.0663 71.0105 87.7645C73.7087 90.4627 77.1464 92.3002 80.8889 93.0446C84.6315 93.7891 88.5107 93.407 92.036 91.9467C95.5614 90.4865 98.5746 88.0136 100.695 84.8409C102.815 81.6681 103.946 77.938 103.946 74.1221C103.946 71.5885 103.447 69.0797 102.477 66.7389C101.508 64.3982 100.087 62.2713 98.2952 60.4797C96.5037 58.6882 94.3768 57.2671 92.0361 56.2975C89.6953 55.3279 87.1865 54.8289 84.6529 54.8289Z" fill="#3F3D56"/>
<path d="M287.21 94.1034C283.258 94.1034 279.395 92.9315 276.109 90.7358C272.823 88.5402 270.262 85.4194 268.749 81.7682C267.237 78.1169 266.841 74.0992 267.612 70.2231C268.383 66.3469 270.286 62.7864 273.081 59.9919C275.875 57.1974 279.436 55.2943 283.312 54.5232C287.188 53.7522 291.206 54.1479 294.857 55.6603C298.508 57.1727 301.629 59.7339 303.825 63.0199C306.02 66.3059 307.192 70.1693 307.192 74.1214C307.192 79.4209 305.087 84.5034 301.34 88.2508C297.592 91.9982 292.51 94.1034 287.21 94.1034ZM287.21 54.8289C283.395 54.8289 279.664 55.9604 276.492 58.0804C273.319 60.2004 270.846 63.2136 269.386 66.7389C267.925 70.2643 267.543 74.1435 268.288 77.886C269.032 81.6286 270.87 85.0663 273.568 87.7645C276.266 90.4627 279.704 92.3002 283.446 93.0446C287.189 93.7891 291.068 93.407 294.594 91.9467C298.119 90.4865 301.132 88.0136 303.252 84.8409C305.372 81.6681 306.504 77.938 306.504 74.1221C306.504 71.5885 306.005 69.0797 305.035 66.7389C304.065 64.3982 302.644 62.2713 300.853 60.4797C299.061 58.6882 296.934 57.2671 294.594 56.2975C292.253 55.3279 289.744 54.8289 287.21 54.8289Z" fill="#3F3D56"/>
<path d="M360.371 47.7262H12.2771C5.50074 47.7378 0.00927745 54.522 0 62.8949V228.851C0.00927745 237.223 5.50074 244.004 12.2771 244.019H360.371C367.147 244.008 372.639 237.223 372.648 228.851V62.8941C372.639 54.522 367.147 47.7409 360.371 47.7255V47.7262ZM371.205 228.851C371.198 236.239 366.352 242.226 360.372 242.234H12.2771C6.29706 242.225 1.45346 236.239 1.44419 228.851V62.8941C1.45114 55.5062 6.29706 49.5191 12.2771 49.5106H360.371C366.351 49.5199 371.194 55.5062 371.204 62.8941L371.205 228.851Z" fill="#3F3D56"/>
<path d="M87.3626 114.474H25.5129V157.769H87.3626V114.474Z" fill="#E5E8F1"/>
<path d="M173.952 114.474H112.102V157.769H173.952V114.474Z" fill="#E5E8F1"/>
<path d="M260.542 114.474H198.692V157.769H260.542V114.474Z" fill="#E5E8F1"/>
<path d="M347.131 114.474H285.281V157.769H347.131V114.474Z" fill="#E5E8F1"/>
<path d="M87.3626 177.87H25.5129V221.165H87.3626V177.87Z" fill="#E5E8F1"/>
<path d="M173.952 177.87H112.102V221.165H173.952V177.87Z" fill="#E5E8F1"/>
<path d="M260.542 177.87H198.692V221.165H260.542V177.87Z" fill="#E5E8F1"/>
<path d="M347.131 177.87H285.281V221.165H347.131V177.87Z" fill="#E5E8F1"/>
<path d="M132.705 220.913L118.105 200.749L122.082 197.87L133.258 213.304L176.025 169.366L179.543 172.791L132.705 220.913Z" fill="#242C41"/>
<path d="M220.068 157.517L205.468 137.353L209.445 134.474L220.621 149.908L263.388 105.97L266.905 109.395L220.068 157.517Z" fill="#242C41"/>
<path d="M84.9165 0H83.8596V74.2118H84.9165V0Z" fill="#2F2E41"/>
<path d="M288.247 0H287.19V74.2118H288.247V0Z" fill="#2F2E41"/>
<path d="M591.732 454.998H298.525C298.38 455.007 298.234 454.987 298.097 454.938C297.96 454.889 297.835 454.813 297.728 454.713C297.622 454.614 297.538 454.493 297.48 454.36C297.422 454.226 297.392 454.083 297.392 453.937C297.392 453.791 297.422 453.647 297.48 453.514C297.538 453.38 297.622 453.26 297.728 453.161C297.835 453.061 297.96 452.985 298.097 452.936C298.234 452.887 298.38 452.867 298.525 452.876H591.732C591.877 452.867 592.023 452.887 592.16 452.936C592.297 452.985 592.422 453.061 592.528 453.161C592.635 453.26 592.719 453.38 592.777 453.514C592.835 453.647 592.865 453.791 592.865 453.937C592.865 454.083 592.835 454.226 592.777 454.36C592.719 454.493 592.635 454.614 592.528 454.713C592.422 454.813 592.297 454.889 592.16 454.938C592.023 454.987 591.877 455.007 591.732 454.998Z" fill="#3F3D56"/>
<path d="M46.8889 157.517L32.2886 137.353L36.2655 134.474L47.4417 149.908L90.2084 105.97L93.7261 109.395L46.8889 157.517Z" fill="#242C41"/>
<path d="M507.36 288.208C507.77 288.086 508.189 287.997 508.613 287.94L525.544 253.536L520.375 245.787L531.05 236.458L544.469 252.879L517.138 292.655C517.812 294.159 518.012 295.834 517.711 297.455C517.41 299.076 516.622 300.567 515.453 301.729C514.284 302.892 512.789 303.67 511.166 303.962C509.543 304.254 507.87 304.045 506.369 303.362C504.868 302.68 503.611 301.557 502.764 300.142C501.917 298.727 501.521 297.088 501.629 295.443C501.736 293.798 502.342 292.225 503.366 290.932C504.39 289.64 505.783 288.69 507.36 288.208Z" fill="#FFB8B8"/>
<path d="M536.261 241.217C536.03 241.46 535.766 241.668 535.476 241.835L518.153 251.877C517.355 252.34 516.405 252.467 515.514 252.229C514.622 251.992 513.861 251.41 513.398 250.612C513.35 250.528 513.305 250.443 513.264 250.356L504.837 232.556C504.478 231.807 504.401 230.954 504.619 230.153C504.837 229.352 505.336 228.656 506.025 228.192L516.763 220.888C517.433 220.432 518.242 220.224 519.049 220.301C519.856 220.378 520.611 220.734 521.184 221.308L536.192 236.369C536.832 237.01 537.196 237.874 537.208 238.779C537.221 239.684 536.88 240.558 536.259 241.216L536.261 241.217Z" fill="#CCCCCC"/>
<path d="M560.583 438.34L551.437 440.829L537.486 406.734L550.985 403.061L560.583 438.34Z" fill="#FFB8B8"/>
<path d="M544.196 439.988L561.834 435.189L564.855 446.292L536.111 454.113C535.31 451.167 535.712 448.024 537.228 445.375C538.744 442.726 541.25 440.787 544.195 439.985H544.195L544.196 439.988Z" fill="#2F2E41"/>
<path d="M482.397 445.319H472.918L468.408 408.76H482.397V445.319Z" fill="#FFB8B8"/>
<path d="M466.148 442.61H484.428V454.12H454.639C454.639 452.609 454.936 451.112 455.515 449.716C456.093 448.319 456.941 447.05 458.009 445.982C459.078 444.913 460.347 444.065 461.743 443.486C463.139 442.908 464.636 442.61 466.148 442.61H466.148Z" fill="#2F2E41"/>
<path d="M492.383 208.752C502.871 208.752 511.372 200.25 511.372 189.763C511.372 179.276 502.871 170.775 492.383 170.775C481.896 170.775 473.395 179.276 473.395 189.763C473.395 200.25 481.896 208.752 492.383 208.752Z" fill="#FFB8B8"/>
<path d="M481.816 419.252H468.864C467.978 419.252 467.126 418.914 466.479 418.308C465.833 417.701 465.442 416.872 465.385 415.988C461.526 354.632 463.783 310.62 472.49 277.481C472.528 277.336 472.575 277.193 472.631 277.054L473.327 275.32C473.583 274.673 474.028 274.118 474.605 273.728C475.181 273.338 475.862 273.13 476.558 273.133H503.193C503.695 273.132 504.191 273.241 504.647 273.45C505.103 273.66 505.508 273.966 505.835 274.347L509.452 278.568C509.523 278.65 509.589 278.735 509.653 278.823C525.965 301.573 540.586 346.049 557.518 405.829C557.768 406.698 557.669 407.63 557.242 408.427C556.815 409.224 556.093 409.822 555.231 410.095L541.315 414.549C540.516 414.801 539.653 414.758 538.883 414.427C538.113 414.096 537.488 413.5 537.121 412.747L500.998 337.826C500.746 337.302 500.331 336.874 499.816 336.604C499.301 336.335 498.713 336.238 498.139 336.329C497.565 336.419 497.035 336.693 496.628 337.108C496.221 337.523 495.959 338.059 495.88 338.634L485.264 416.244C485.147 417.076 484.735 417.839 484.101 418.391C483.468 418.944 482.657 419.25 481.816 419.252Z" fill="#2F2E41"/>
<path d="M507.993 278.878H507.884L475.528 277.854C474.696 277.831 473.9 277.509 473.286 276.948C472.671 276.387 472.279 275.623 472.181 274.797C468.083 241.599 479.328 232.705 484.354 230.42C484.774 230.23 485.138 229.936 485.411 229.564C485.683 229.193 485.855 228.757 485.91 228.299L486.345 224.82C486.419 224.206 486.657 223.622 487.033 223.13C494.914 212.921 505.675 209.652 511.386 208.613C512.293 208.45 513.227 208.654 513.983 209.18C514.74 209.706 515.256 210.51 515.419 211.417C515.429 211.474 515.438 211.532 515.445 211.589L516.097 216.586C516.164 217.062 516.354 217.513 516.648 217.893C533.084 239.38 514.774 271.105 510.937 277.246C510.624 277.745 510.189 278.156 509.675 278.441C509.16 278.726 508.581 278.876 507.993 278.878Z" fill="#CCCCCC"/>
<path d="M491.383 316.567L469.724 259.472L473.847 257.909L497.473 320.183L473.565 324.791L472.731 320.46L491.197 316.901L491.488 316.845L491.383 316.567Z" fill="#242C41" stroke="#E5E8F1" stroke-width="0.5"/>
<path d="M530.694 191.901C526.458 185.936 521.378 180.619 515.614 176.114C510.821 172.371 505.486 169.173 499.604 167.643C493.721 166.114 487.219 166.374 481.85 169.228C476.482 172.081 470.93 177.751 470.896 183.831C470.885 185.785 471.382 188.427 473.306 188.089L473.862 188.167L487.784 185.355L493.713 205.932C494.13 207.378 494.689 208.995 496.061 209.611C497.354 210.191 498.844 209.644 500.159 209.098C500.374 209.008 502.221 204.86 502.221 204.86C502.268 204.73 502.348 204.615 502.453 204.527C502.559 204.439 502.686 204.38 502.822 204.357C502.958 204.335 503.097 204.349 503.226 204.398C503.354 204.447 503.467 204.53 503.553 204.637L504.651 206.01C504.861 206.272 505.15 206.46 505.475 206.543C505.8 206.627 506.144 206.602 506.454 206.473L529.158 196.996C530.204 196.559 531.373 195.991 531.676 194.897C531.962 193.844 531.322 192.787 530.694 191.901Z" fill="#2F2E41"/>
<path d="M504.975 326.065C505.969 325.368 506.798 324.461 507.404 323.409C508.01 322.357 508.377 321.184 508.481 319.975C508.584 318.765 508.422 317.547 508.004 316.407C507.586 315.267 506.923 314.233 506.062 313.377L512.072 240.803L494.179 243.265L493.838 313.773C492.494 315.314 491.761 317.295 491.78 319.34C491.799 321.386 492.567 323.353 493.94 324.869C495.313 326.385 497.195 327.344 499.228 327.565C501.262 327.785 503.305 327.252 504.971 326.066L504.975 326.065Z" fill="#FFB8B8"/>
<path d="M513.241 251.253C512.906 251.253 512.573 251.205 512.252 251.11L493.043 245.46C492.604 245.331 492.196 245.117 491.84 244.831C491.485 244.544 491.189 244.19 490.97 243.789C490.751 243.387 490.614 242.947 490.565 242.493C490.517 242.039 490.558 241.579 490.687 241.141C490.714 241.048 490.745 240.957 490.78 240.867L497.889 222.502C498.185 221.727 498.751 221.083 499.482 220.69C500.213 220.296 501.062 220.179 501.873 220.359L514.563 223.118C515.356 223.29 516.063 223.734 516.563 224.372C517.063 225.01 517.324 225.803 517.302 226.613L516.711 247.868C516.687 248.772 516.311 249.632 515.663 250.264C515.015 250.896 514.146 251.25 513.241 251.253V251.253Z" fill="#CCCCCC"/>
</g>
<defs>
<clipPath id="clip0">
<rect width="592.865" height="455" fill="white"/>
</clipPath>
</defs>
</svg>
